<svg xmlns="http://www.w3.org/2000/svg" viewBox="0 0 165.18 192"><path d="M128.54 89q-1.25-.6-2.52-1.14c-1.48-27.31-16.4-42.94-41.46-43.1h-.34c-15 0-27.45 6.39-35.12 18l13.78 9.45c5.73-8.69 14.73-10.54 21.35-10.54h.23c8.25.05 14.47 2.45 18.5 7.12 2.93 3.41 4.89 8.12 5.86 14a105.86 105.86 0 0 0-23.68-1.14C61.32 83.1 46 97 47 116.29A29.78 29.78 0 0 0 60.77 140c7 4.65 16.13 6.93 25.56 6.41 12.46-.68 22.23-5.43 29.05-14.12 5.18-6.6 8.45-15.16 9.9-25.93 5.94 3.58 10.34 8.29 12.77 14 4.13 9.64 4.37 25.47-8.55 38.38-11.32 11.26-24.92 16.17-45.5 16.32-22.81-.17-40.06-7.48-51.27-21.74C22.24 140 16.81 120.68 16.6 96c.21-24.68 5.64-44 16.14-57.32C44 24.42 61.2 17.11 84 16.94c23 .17 40.53 7.52 52.17 21.85 5.71 7 10 15.86 12.86 26.16l16.14-4.31C161.74 48 156.33 37 149 28 134 9.61 112.2.19 84.07 0H84C55.88.19 34.29 9.64 19.79 28.08 6.88 44.49.22 67.32 0 95.93v.14c.22 28.61 6.88 51.44 19.79 67.85C34.29 182.36 55.88 191.81 84 192h.11c25-.17 42.55-6.71 57.05-21.19 19-18.94 18.39-42.69 12.14-57.27-4.48-10.45-13-18.94-24.72-24.55Zm-43.1 40.52c-10.44.59-21.29-4.1-21.82-14.14-.4-7.44 5.3-15.74 22.46-16.73 2-.12 3.9-.17 5.79-.17a81.49 81.49 0 0 1 17.37 1.76c-1.98 24.69-13.58 28.76-23.8 29.27Z" style="fill:#fff"/></svg>